<?xml version="1.0" encoding="UTF-8" standalone="no"?>
<svg
   xmlns:dc="http://purl.org/dc/elements/1.1/"
   xmlns:cc="http://creativecommons.org/ns#"
   xmlns:rdf="http://www.w3.org/1999/02/22-rdf-syntax-ns#"
   xmlns:svg="http://www.w3.org/2000/svg"
   xmlns="http://www.w3.org/2000/svg"
   xmlns:sodipodi="http://sodipodi.sourceforge.net/DTD/sodipodi-0.dtd"
   xmlns:inkscape="http://www.inkscape.org/namespaces/inkscape"
   height="30"
   width="30"
   viewBox="-204.79995 -341.33325 44.373322 76.799982"
   version="1.1"
   id="svg26"
   sodipodi:docname="facebook.svg"
   inkscape:version="1.0.1 (3bc2e813f5, 2020-09-07)">
  <metadata
     id="metadata32">
    <rdf:RDF>
      <cc:Work
         rdf:about="">
        <dc:format>image/svg+xml</dc:format>
        <dc:type
           rdf:resource="http://purl.org/dc/dcmitype/StillImage" />
        <dc:title></dc:title>
      </cc:Work>
    </rdf:RDF>
  </metadata>
  <defs
     id="defs30" />
  <sodipodi:namedview
     pagecolor="#ffffff"
     bordercolor="#666666"
     borderopacity="1"
     objecttolerance="10"
     gridtolerance="10"
     guidetolerance="10"
     inkscape:pageopacity="0"
     inkscape:pageshadow="2"
     inkscape:window-width="1366"
     inkscape:window-height="715"
     id="namedview28"
     showgrid="false"
     inkscape:zoom="7.9337381"
     inkscape:cx="26.93816"
     inkscape:cy="24.230043"
     inkscape:window-x="-8"
     inkscape:window-y="22"
     inkscape:window-maximized="1"
     inkscape:current-layer="svg26"
     inkscape:document-rotation="0" />
  <g
     id="g36"
     transform="matrix(0.0559082,0,0,0.0559082,-220.77994,-341.09991)">
    <path
       d="M 1365.333,682.667 C 1365.333,305.64 1059.693,0 682.667,0 305.64,0 0,305.64 0,682.667 c 0,340.738 249.641,623.16 576,674.373 V 880 H 402.667 V 682.667 H 576 v -150.4 c 0,-171.094 101.917,-265.6 257.853,-265.6 74.69,0 152.814,13.333 152.814,13.333 v 168 h -86.083 c -84.804,0 -111.25,52.623 -111.25,106.61 V 682.667 H 978.667 L 948.4,880 H 789.333 v 477.04 c 326.359,-51.213 576,-333.635 576,-674.373"
       fill="#1877f2"
       id="path22" />
    <path
       d="M 948.4,880 978.667,682.667 H 789.333 V 554.609 C 789.333,500.623 815.78,448 900.584,448 h 86.083 V 280 c 0,0 -78.124,-13.333 -152.814,-13.333 -155.936,0 -257.853,94.506 -257.853,265.6 v 150.4 H 402.667 V 880 H 576 v 477.04 a 687.805,687.805 0 0 0 106.667,8.293 c 36.288,0 71.91,-2.84 106.666,-8.293 V 880 H 948.4"
       fill="#fff"
       id="path24"
       style="fill:#ffffff" />
  </g>
</svg>
