<?xml version="1.0" encoding="UTF-8" standalone="no"?>
<svg
   xmlns:dc="http://purl.org/dc/elements/1.1/"
   xmlns:cc="http://creativecommons.org/ns#"
   xmlns:rdf="http://www.w3.org/1999/02/22-rdf-syntax-ns#"
   xmlns:svg="http://www.w3.org/2000/svg"
   xmlns="http://www.w3.org/2000/svg"
   xmlns:sodipodi="http://sodipodi.sourceforge.net/DTD/sodipodi-0.dtd"
   xmlns:inkscape="http://www.inkscape.org/namespaces/inkscape"
   version="1.1"
   id="Capa_1"
   x="0px"
   y="0px"
   viewBox="0 0 75 75"
   xml:space="preserve"
   sodipodi:docname="twitter.svg"
   width="75"
   height="75"
   inkscape:version="1.0.1 (3bc2e813f5, 2020-09-07)"><metadata
   id="metadata142"><rdf:RDF><cc:Work
       rdf:about=""><dc:format>image/svg+xml</dc:format><dc:type
         rdf:resource="http://purl.org/dc/dcmitype/StillImage" /><dc:title></dc:title></cc:Work></rdf:RDF></metadata><defs
   id="defs140" /><sodipodi:namedview
   pagecolor="#ffffff"
   bordercolor="#666666"
   borderopacity="1"
   objecttolerance="10"
   gridtolerance="10"
   guidetolerance="10"
   inkscape:pageopacity="0"
   inkscape:pageshadow="2"
   inkscape:window-width="1366"
   inkscape:window-height="715"
   id="namedview138"
   showgrid="false"
   inkscape:zoom="3.2261747"
   inkscape:cx="37.413556"
   inkscape:cy="41.539687"
   inkscape:window-x="-8"
   inkscape:window-y="22"
   inkscape:window-maximized="1"
   inkscape:current-layer="Capa_1" />
<path
   style="fill:#03a9f4;stroke-width:0.144639"
   d="m 74.527556,14.53827 c -2.75392,1.208023 -5.68836,2.008745 -8.74777,2.397538 3.14735,-1.879149 5.54951,-4.8321 6.67886,-8.3913793 -2.93444,1.7495573 -6.17435,2.9853513 -9.62717,3.6749913 -2.78633,-2.9668363 -6.75754,-4.8043323 -11.08977,-4.8043323 -8.40526,0 -15.17205,6.8223353 -15.17205,15.1859423 0,1.203394 0.10183,2.360508 0.35176,3.462077 -12.62177,-0.615586 -23.790219,-6.664966 -31.2929314,-15.880204 -1.309851,2.272568 -2.078173,4.873756 -2.078173,7.673967 0,5.257915 2.707642,9.918764 6.7436484,12.617149 -2.4391924,-0.04629 -4.8320994,-0.754441 -6.8593594,-1.869896 0,0.04629 0,0.106454 0,0.166627 0,7.377743 5.262545,13.50581 12.1635584,14.917484 -1.235796,0.337877 -2.582674,0.499875 -3.980463,0.499875 -0.971975,0 -1.9532054,-0.05553 -2.8742664,-0.259194 1.9670904,6.012356 7.5489974,10.432517 14.1861964,10.576007 -5.165352,4.04063 -11.723862,6.4752 -18.8239014,6.4752 -1.245052,0 -2.439191,-0.0555 -3.63333099,-0.20828 6.72513499,4.33685 14.69532039,6.81307 23.29035239,6.81307 27.9373,0 43.21119,-23.142237 43.21119,-43.201931 0,-0.671125 -0.0232,-1.319112 -0.0555,-1.962464 3.01312,-2.138343 5.54489,-4.808956 7.60917,-7.882247 z"
   id="path105" />
<g
   id="g107">
</g>
<g
   id="g109">
</g>
<g
   id="g111">
</g>
<g
   id="g113">
</g>
<g
   id="g115">
</g>
<g
   id="g117">
</g>
<g
   id="g119">
</g>
<g
   id="g121">
</g>
<g
   id="g123">
</g>
<g
   id="g125">
</g>
<g
   id="g127">
</g>
<g
   id="g129">
</g>
<g
   id="g131">
</g>
<g
   id="g133">
</g>
<g
   id="g135">
</g>
</svg>
